<mxfile host="app.diagrams.net" modified="2021-09-05T01:47:56.853Z" agent="5.0 (Windows)" etag="eOjrgqinSsRs0rb_RC_M" version="15.0.4" type="github">
  <diagram id="4v0wEwr2fgl1C8vTsnwW" name="Page-1">
    <mxGraphModel dx="868" dy="460" grid="1" gridSize="10" guides="1" tooltips="1" connect="1" arrows="1" fold="1" page="1" pageScale="1" pageWidth="850" pageHeight="1100" math="0" shadow="0">
      <root>
        <mxCell id="0" />
        <mxCell id="1" parent="0" />
        <mxCell id="Npf93SWOLmE8bC3VuN72-1" value="" style="rounded=0;whiteSpace=wrap;html=1;" vertex="1" parent="1">
          <mxGeometry x="200" y="80" width="420" height="240" as="geometry" />
        </mxCell>
        <mxCell id="Npf93SWOLmE8bC3VuN72-8" value="" style="rounded=0;whiteSpace=wrap;html=1;" vertex="1" parent="1">
          <mxGeometry x="200" y="120" width="420" height="40" as="geometry" />
        </mxCell>
        <mxCell id="Npf93SWOLmE8bC3VuN72-9" value="" style="rounded=0;whiteSpace=wrap;html=1;fillColor=#f5f5f5;strokeColor=#666666;fontColor=#333333;" vertex="1" parent="1">
          <mxGeometry x="200" y="80" width="420" height="40" as="geometry" />
        </mxCell>
        <mxCell id="Npf93SWOLmE8bC3VuN72-15" value="" style="rounded=0;whiteSpace=wrap;html=1;" vertex="1" parent="1">
          <mxGeometry x="200" y="160" width="420" height="40" as="geometry" />
        </mxCell>
        <mxCell id="Npf93SWOLmE8bC3VuN72-16" value="" style="rounded=0;whiteSpace=wrap;html=1;" vertex="1" parent="1">
          <mxGeometry x="200" y="200" width="420" height="40" as="geometry" />
        </mxCell>
        <mxCell id="Npf93SWOLmE8bC3VuN72-17" value="" style="rounded=0;whiteSpace=wrap;html=1;" vertex="1" parent="1">
          <mxGeometry x="200" y="240" width="420" height="40" as="geometry" />
        </mxCell>
        <mxCell id="Npf93SWOLmE8bC3VuN72-19" value="" style="rounded=0;whiteSpace=wrap;html=1;" vertex="1" parent="1">
          <mxGeometry x="200" y="280" width="420" height="40" as="geometry" />
        </mxCell>
        <mxCell id="Npf93SWOLmE8bC3VuN72-22" value="" style="line;strokeWidth=2;direction=south;html=1;" vertex="1" parent="1">
          <mxGeometry x="470" y="120" width="10" height="200" as="geometry" />
        </mxCell>
        <mxCell id="Npf93SWOLmE8bC3VuN72-23" value="" style="line;strokeWidth=2;direction=south;html=1;" vertex="1" parent="1">
          <mxGeometry x="380" y="120" width="10" height="200" as="geometry" />
        </mxCell>
        <mxCell id="Npf93SWOLmE8bC3VuN72-24" value="" style="line;strokeWidth=2;direction=south;html=1;" vertex="1" parent="1">
          <mxGeometry x="290" y="120" width="10" height="200" as="geometry" />
        </mxCell>
      </root>
    </mxGraphModel>
  </diagram>
</mxfile>
